<svg viewBox="0 0 1200 630" xmlns="http://www.w3.org/2000/svg" role="img" aria-label="Codifie Scan — Make your AI-built site safer in 90 seconds">
  <defs>
    <linearGradient id="bg" x1="0" y1="0" x2="1" y2="1">
      <stop offset="0%" stop-color="#0F172A"/>
      <stop offset="100%" stop-color="#020617"/>
    </linearGradient>
    <linearGradient id="hood" x1="0" y1="0" x2="0" y2="1">
      <stop offset="0%" stop-color="#475569"/>
      <stop offset="100%" stop-color="#1E293B"/>
    </linearGradient>
    <radialGradient id="glow">
      <stop offset="0%" stop-color="#7DF9FF"/>
      <stop offset="60%" stop-color="#00D4FF"/>
      <stop offset="100%" stop-color="#00D4FF" stop-opacity="0"/>
    </radialGradient>
    <radialGradient id="bgGlow" cx="50%" cy="40%">
      <stop offset="0%" stop-color="#00D4FF" stop-opacity="0.15"/>
      <stop offset="100%" stop-color="#00D4FF" stop-opacity="0"/>
    </radialGradient>
  </defs>

  <rect width="1200" height="630" fill="url(#bg)"/>
  <rect width="1200" height="630" fill="url(#bgGlow)"/>

  <g transform="translate(450, 80)">
    <path d="M 150 20 C 60 20, 30 80, 30 140 L 30 240 C 30 260, 40 270, 60 270 L 240 270 C 260 270, 270 260, 270 240 L 270 140 C 270 80, 240 20, 150 20 Z" fill="url(#hood)"/>
    <ellipse cx="150" cy="160" rx="80" ry="70" fill="#000"/>
    <circle cx="115" cy="155" r="28" fill="url(#glow)"/>
    <circle cx="115" cy="155" r="11" fill="#7DF9FF"/>
    <circle cx="185" cy="155" r="28" fill="url(#glow)"/>
    <circle cx="185" cy="155" r="11" fill="#7DF9FF"/>
  </g>

  <text x="600" y="440" font-family="ui-monospace, 'SF Mono', Menlo, Consolas, monospace" font-size="76" font-weight="800" fill="#F8FAFC" text-anchor="middle" letter-spacing="-0.02em">
    Codifie<tspan fill="#00D4FF" font-weight="600">Scan</tspan>
  </text>

  <text x="600" y="500" font-family="ui-sans-serif, system-ui, -apple-system, 'Segoe UI', sans-serif" font-size="28" font-weight="500" fill="#94A3B8" text-anchor="middle" letter-spacing="-0.01em">
    Scan your AI-built site in 90 seconds.
  </text>

  <text x="600" y="540" font-family="ui-sans-serif, system-ui, -apple-system, 'Segoe UI', sans-serif" font-size="22" font-weight="500" fill="#64748B" text-anchor="middle" letter-spacing="0">
    Security · Performance · Accessibility · SEO · AI fix prompts
  </text>
</svg>
